<svg id="Capa_1" data-name="Capa 1" xmlns="http://www.w3.org/2000/svg" viewBox="0 0 32 32"><defs><style>.cls-1{fill:#647358;}.cls-2{fill:#a4a281;}</style></defs><path class="cls-1" d="M21.21,8.58l-5.38,7.24L10.45,8.58,5,15.88v7.3H26.64v-7.3ZM10.15,19.64H8.83V18h1.32Zm0-2.12H8.83V15.88h1.32ZM12,19.64H10.62V18H12Zm0-2.12H10.62V15.88H12Zm9,2.12H19.66V18H21Zm0-2.12H19.66V15.88H21Zm1.8,2.12H21.45V18h1.33Zm0-2.12H21.45V15.88h1.33Z"/><path class="cls-2" d="M10.45,8.58,5,15.88v7.3h10.8V15.82Zm-.3,11.06H8.83V18h1.32Zm0-2.12H8.83V15.88h1.32ZM12,19.64H10.62V18H12Zm0-2.12H10.62V15.88H12Z"/></svg>