<svg xmlns="http://www.w3.org/2000/svg" viewBox="0 0 94.97 64.16"><defs><style>.cls-1{fill:#eff2eb;}.cls-2{fill:#fff;}</style></defs><g id="Capa_2" data-name="Capa 2"><g id="OBJECTS"><path class="cls-1" d="M71.13,0,47.49,31.82,23.84,0,0,32.08V64.16H95V32.08ZM22.53,48.61H16.7v-7.2h5.83Zm0-9.33H16.7v-7.2h5.83Zm7.89,9.33H24.6v-7.2h5.82Zm0-9.33H24.6v-7.2h5.82Zm39.71,9.33H64.3v-7.2h5.83Zm0-9.33H64.3v-7.2h5.83ZM78,48.61H72.19v-7.2H78Zm0-9.33H72.19v-7.2H78Z"/><path class="cls-2" d="M23.84,0,0,32.08V64.16H47.49V31.82ZM22.53,48.61H16.7v-7.2h5.83Zm0-9.33H16.7v-7.2h5.83Zm7.89,9.33H24.6v-7.2h5.82Zm0-9.33H24.6v-7.2h5.82Z"/></g></g></svg>