<svg xmlns="http://www.w3.org/2000/svg" viewBox="0 0 154.75 118.01"><defs><style>.cls-1{font-size:18.75px;}.cls-1,.cls-4,.cls-6{fill:#fff;}.cls-1,.cls-4{font-family:Lato-Regular, Lato;}.cls-2,.cls-3{font-family:Lato-Black, Lato;font-weight:800;}.cls-3{letter-spacing:-0.03em;}.cls-4{font-size:11.54px;letter-spacing:0.15em;}.cls-5{fill:#eff2eb;}</style></defs><g id="Capa_2" data-name="Capa 2"><g id="OBJECTS"><text class="cls-1" transform="translate(0 100.24)">REFORMAS <tspan class="cls-2" x="104.16" y="0">MI</tspan><tspan class="cls-3" x="127.76" y="0">R</tspan><tspan class="cls-2" x="139.75" y="0">Ó</tspan></text><text class="cls-4" transform="translate(40.21 115.9)">REFORMAS</text><path class="cls-5" d="M100.84,0,77.2,31.82,53.56,0,29.72,32.08V64.16h95V32.08ZM52.24,48.61H46.42v-7.2h5.82Zm0-9.33H46.42v-7.2h5.82Zm7.9,9.33H54.31v-7.2h5.83Zm0-9.33H54.31v-7.2h5.83Zm39.7,9.33H94v-7.2h5.82Zm0-9.33H94v-7.2h5.82Zm7.89,9.33h-5.82v-7.2h5.82Zm0-9.33h-5.82v-7.2h5.82Z"/><path class="cls-6" d="M53.56,0,29.72,32.08V64.16H77.2V31.82ZM52.24,48.61H46.42v-7.2h5.82Zm0-9.33H46.42v-7.2h5.82Zm7.9,9.33H54.31v-7.2h5.83Zm0-9.33H54.31v-7.2h5.83Z"/></g></g></svg>