<svg xmlns="http://www.w3.org/2000/svg" viewBox="0 0 175.16 68.56"><defs><style>.cls-1{fill:#e1e5dc;}.cls-2{fill:#fff;}</style></defs><g id="Capa_2" data-name="Capa 2"><g id="OBJECTS"><rect class="cls-1" x="43.27" y="34.44" width="19.05" height="15.57"/><rect class="cls-1" x="43.27" y="52.73" width="41.03" height="15.57"/><rect class="cls-1" x="65.25" y="34.44" width="41.03" height="15.57"/><rect class="cls-1" x="87.22" y="52.73" width="19.05" height="15.57"/><polygon class="cls-2" points="43.27 30.89 106.27 30.89 74.77 0 43.27 30.89"/><path class="cls-2" d="M18.13,54c.29.63.56,1.28.82,1.95.27-.68.54-1.34.84-2s.59-1.27.9-1.87l8.66-17.05a2.77,2.77,0,0,1,.47-.68,1.35,1.35,0,0,1,.54-.36,1.85,1.85,0,0,1,.69-.12h6.86v33.7H31V48.22c0-.94,0-2,.14-3L22.22,62.5a3,3,0,0,1-1.12,1.23,3.12,3.12,0,0,1-1.61.42H18.42a3.09,3.09,0,0,1-1.61-.42,3,3,0,0,1-1.12-1.23l-9-17.35c.06.54.11,1.07.14,1.6s.05,1,.05,1.47v19.4H0V33.92H6.86a1.79,1.79,0,0,1,.68.12,1.32,1.32,0,0,1,.55.36,2.77,2.77,0,0,1,.47.68L17.24,52.2C17.55,52.79,17.85,53.4,18.13,54Z"/><path class="cls-2" d="M120.08,55.72V68.19h-7.83V34.47h11a22.58,22.58,0,0,1,6.24.75,11.7,11.7,0,0,1,4.21,2.1,7.94,7.94,0,0,1,2.38,3.17,10.6,10.6,0,0,1,.74,4,10.75,10.75,0,0,1-.44,3.1,9.65,9.65,0,0,1-1.31,2.7,10.35,10.35,0,0,1-2.13,2.21,11.08,11.08,0,0,1-2.9,1.59,7.84,7.84,0,0,1,1.47,1,5.7,5.7,0,0,1,1.19,1.41l7.17,11.73h-7.08a3,3,0,0,1-2.82-1.48l-5.6-9.79a2.36,2.36,0,0,0-.87-.92,2.85,2.85,0,0,0-1.4-.28Zm0-5.39h3.14a8,8,0,0,0,2.72-.41,4.81,4.81,0,0,0,1.84-1.12,4.34,4.34,0,0,0,1.05-1.68,6.6,6.6,0,0,0,.32-2.07,4.32,4.32,0,0,0-1.45-3.47,6.68,6.68,0,0,0-4.48-1.25h-3.14Z"/><path class="cls-2" d="M175.16,51.32a18.17,18.17,0,0,1-1.26,6.81,16.43,16.43,0,0,1-3.56,5.47,16.2,16.2,0,0,1-5.51,3.64,20.13,20.13,0,0,1-14.34,0,16,16,0,0,1-9.11-9.11,19,19,0,0,1,0-13.61,16.33,16.33,0,0,1,3.56-5.47,16.6,16.6,0,0,1,5.55-3.63,20.06,20.06,0,0,1,14.34,0,16.53,16.53,0,0,1,5.51,3.65,16.19,16.19,0,0,1,3.56,5.46A18.09,18.09,0,0,1,175.16,51.32Zm-8,0a14.34,14.34,0,0,0-.65-4.5,9.49,9.49,0,0,0-1.86-3.39,8,8,0,0,0-3-2.13,10.35,10.35,0,0,0-4-.74,10.47,10.47,0,0,0-4,.74,7.91,7.91,0,0,0-3,2.13,9.66,9.66,0,0,0-1.87,3.39,14.65,14.65,0,0,0-.64,4.5,14.8,14.8,0,0,0,.64,4.53,9.75,9.75,0,0,0,1.87,3.39,7.86,7.86,0,0,0,3,2.11,10.47,10.47,0,0,0,4,.73,10.35,10.35,0,0,0,4-.73,7.91,7.91,0,0,0,3-2.11,9.57,9.57,0,0,0,1.86-3.39A14.49,14.49,0,0,0,167.15,51.32Zm.37-24.74-6.83,5a3.43,3.43,0,0,1-1.12.62,4.82,4.82,0,0,1-1.31.15h-5.69l4.19-4.56a4.43,4.43,0,0,1,.59-.57,2.53,2.53,0,0,1,1.33-.54,8.14,8.14,0,0,1,.93-.05Z"/></g></g></svg>