<svg xmlns="http://www.w3.org/2000/svg" viewBox="0 0 154.75 74.88"><defs><style>.cls-1{font-size:18.75px;font-family:Lato-Regular, Lato;}.cls-1,.cls-5{fill:#fff;}.cls-2,.cls-3{font-family:Lato-Black, Lato;font-weight:800;}.cls-3{letter-spacing:-0.03em;}.cls-4{fill:#eff2eb;}</style></defs><g id="Capa_2" data-name="Capa 2"><g id="OBJECTS"><text class="cls-1" transform="translate(0 71.46)">REFORMAS <tspan class="cls-2" x="104.16" y="0">MI</tspan><tspan class="cls-3" x="127.76" y="0">R</tspan><tspan class="cls-2" x="139.75" y="0">Ó</tspan></text><path class="cls-4" d="M94.1,0,77.38,22.51,60.65,0,43.79,22.69v22.7H111V22.69ZM59.72,34.38H55.6V29.29h4.12Zm0-6.59H55.6v-5.1h4.12Zm5.59,6.59H61.18V29.29h4.13Zm0-6.59H61.18v-5.1h4.13Zm28.08,6.59H89.27V29.29h4.12Zm0-6.59H89.27v-5.1h4.12ZM99,34.38H94.86V29.29H99Zm0-6.59H94.86v-5.1H99Z"/><path class="cls-5" d="M60.65,0,43.79,22.69v22.7H77.38V22.51Zm-.93,34.38H55.6V29.29h4.12Zm0-6.59H55.6v-5.1h4.12Zm5.59,6.59H61.18V29.29h4.13Zm0-6.59H61.18v-5.1h4.13Z"/></g></g></svg>